<?xml version="1.0" standalone="no"?>
<!DOCTYPE svg PUBLIC "-//W3C//DTD SVG 20010904//EN"
 "http://www.w3.org/TR/2001/REC-SVG-20010904/DTD/svg10.dtd">
<svg version="1.0" xmlns="http://www.w3.org/2000/svg"
 width="500.000000pt" height="500.000000pt" viewBox="0 0 500.000000 500.000000"
 preserveAspectRatio="xMidYMid meet">

<g transform="translate(0.000000,500.000000) scale(0.100000,-0.100000)"
fill="#000000" stroke="none">
<path d="M1146 3275 c-9 -9 -16 -26 -16 -38 0 -12 -7 -94 -15 -182 -20 -212
-20 -215 5 -215 23 0 22 -3 44 95 35 151 125 280 215 305 20 5 87 10 149 10
l112 0 0 -275 0 -275 110 0 110 0 0 275 0 275 111 0 c62 0 130 -6 153 -12 90
-27 178 -156 214 -314 15 -67 21 -79 40 -82 16 -3 22 2 22 15 -2 71 -37 414
-44 420 -4 4 -275 9 -601 11 -532 2 -595 1 -609 -13z"/>
<path d="M2850 3275 c0 -11 20 -15 98 -17 l97 -3 3 -277 2 -278 110 0 110 0 0
280 0 280 100 0 c82 0 100 3 100 15 0 13 -41 15 -310 15 -265 0 -310 -2 -310
-15z"/>
<path d="M1837 2515 c-30 -62 -31 -65 -18 -65 5 0 12 8 15 18 5 14 13 17 39
14 17 -3 37 -12 44 -21 6 -9 14 -13 18 -10 8 9 -47 119 -60 119 -6 0 -23 -25
-38 -55z m57 -17 c-7 -10 -31 -10 -37 0 -3 4 0 18 5 32 l9 25 14 -25 c7 -14
11 -28 9 -32z"/>
<path d="M2020 2510 c0 -33 4 -60 10 -60 6 0 10 9 10 19 0 33 22 36 46 8 34
-40 49 -33 18 8 l-27 36 23 24 c13 14 19 25 13 25 -5 0 -20 -11 -33 -25 -13
-14 -27 -25 -32 -25 -4 0 -8 11 -8 25 0 14 -4 25 -10 25 -6 0 -10 -27 -10 -60z"/>
<path d="M2220 2510 c0 -37 4 -60 11 -60 6 0 8 7 5 15 -10 27 25 31 46 5 10
-12 21 -20 25 -16 4 3 -2 13 -13 20 -17 13 -17 15 -2 21 47 18 18 75 -39 75
l-33 0 0 -60z m61 40 c15 -9 17 -15 9 -30 -16 -30 -50 -22 -50 12 0 30 10 34
41 18z"/>
<path d="M2417 2563 c-3 -5 -5 -32 -5 -60 l-1 -53 45 0 c24 0 44 5 44 10 0 6
-16 10 -35 10 -28 0 -35 4 -35 19 0 15 8 21 33 24 l32 4 -33 1 c-47 3 -40 35
8 43 l35 6 -42 2 c-23 0 -44 -2 -46 -6z"/>
<path d="M2590 2515 c0 -65 11 -74 71 -56 47 14 60 47 35 86 -14 20 -25 25
-61 25 l-45 0 0 -55z m94 12 c7 -18 6 -30 -4 -41 -15 -19 -59 -21 -61 -3 -1 6
-3 23 -4 37 -4 34 2 41 33 37 18 -2 30 -12 36 -30z"/>
<path d="M2817 2552 c-23 -25 -21 -57 5 -82 26 -24 46 -25 74 -2 32 26 35 48
13 76 -24 31 -68 35 -92 8z m71 -4 c17 -17 15 -67 -3 -74 -8 -4 -26 -3 -40 0
-20 5 -25 13 -25 36 0 41 42 64 68 38z"/>
<path d="M3029 2554 c-22 -27 -21 -61 3 -83 23 -22 36 -25 62 -15 25 10 19 22
-9 16 -31 -6 -55 13 -55 44 0 29 31 46 67 38 22 -4 25 -3 13 5 -22 16 -66 13
-81 -5z"/>
<path d="M1640 2035 l0 -265 -100 0 c-93 0 -100 -1 -100 -20 0 -20 7 -20 310
-20 303 0 310 0 310 20 0 19 -7 20 -100 20 l-100 0 0 265 0 265 -110 0 -110 0
0 -265z"/>
<path d="M3050 2050 l0 -249 -97 -3 c-84 -3 -98 -6 -101 -20 -3 -17 17 -18
308 -18 291 0 311 1 308 18 -3 14 -17 17 -101 20 l-97 3 0 249 0 250 -110 0
-110 0 0 -250z"/>
<path d="M2279 1539 c-10 -6 -10 -9 -1 -9 7 0 12 -14 12 -35 0 -48 17 -44 22
5 4 41 -8 55 -33 39z"/>
<path d="M2420 1550 c-7 -28 -4 -90 5 -90 7 0 10 14 7 38 -3 37 -9 62 -12 52z"/>
<path d="M2560 1510 c0 -25 -4 -39 -10 -35 -5 3 -10 19 -10 36 0 16 -4 29 -10
29 -11 0 -13 -24 -4 -57 7 -26 39 -31 48 -7 9 24 7 62 -4 69 -6 4 -10 -10 -10
-35z"/>
<path d="M2676 1535 c4 -11 9 -33 12 -49 l5 -29 13 39 c16 46 18 66 3 41 -10
-18 -11 -18 -26 0 -14 17 -14 17 -7 -2z"/>
</g>
</svg>
